<mxfile host="app.diagrams.net" modified="2023-03-13T13:50:13.761Z" agent="5.0 (Macintosh; Intel Mac OS X 10_15_7) AppleWebKit/537.36 (KHTML, like Gecko) Chrome/111.0.0.0 Safari/537.36" etag="erO_5noiGDkae_qkWyIk" version="21.0.6" type="github">
  <diagram name="Page-1" id="929967ad-93f9-6ef4-fab6-5d389245f69c">
    <mxGraphModel dx="984" dy="672" grid="1" gridSize="10" guides="1" tooltips="1" connect="1" arrows="1" fold="1" page="1" pageScale="1.5" pageWidth="1169" pageHeight="826" background="none" math="0" shadow="0">
      <root>
        <mxCell id="0" style=";html=1;" />
        <mxCell id="1" style=";html=1;" parent="0" />
        <mxCell id="1672d66443f91eb5-1" value="&lt;p style=&quot;margin: 0px ; margin-top: 4px ; margin-left: 10px ; text-align: left&quot;&gt;&lt;b&gt;req&lt;/b&gt;&amp;nbsp;[package] HSUVRequirements[HSUV Specification]&lt;/p&gt;" style="html=1;strokeWidth=1;shape=mxgraph.sysml.package;html=1;overflow=fill;whiteSpace=wrap;fillColor=none;gradientColor=none;fontSize=12;align=center;labelX=327.64;" parent="1" vertex="1">
          <mxGeometry x="317" y="295" width="1120" height="650" as="geometry" />
        </mxCell>
        <mxCell id="1672d66443f91eb5-5" value="&lt;p&gt;spring boot&amp;nbsp;&lt;/p&gt;&lt;p&gt;micro-services&lt;/p&gt;" style="shape=rect;html=1;overflow=fill;whiteSpace=wrap;align=center;fontStyle=1" parent="1" vertex="1">
          <mxGeometry x="637" y="535" width="160" height="70" as="geometry" />
        </mxCell>
        <mxCell id="1672d66443f91eb5-16" style="edgeStyle=orthogonalEdgeStyle;rounded=0;html=1;endArrow=circlePlus;endFill=0;jettySize=auto;orthogonalLoop=1;entryX=0.25;entryY=1;" parent="1" source="1672d66443f91eb5-7" target="1672d66443f91eb5-5" edge="1">
          <mxGeometry relative="1" as="geometry">
            <Array as="points">
              <mxPoint x="627" y="635" />
              <mxPoint x="677" y="635" />
            </Array>
          </mxGeometry>
        </mxCell>
        <mxCell id="1672d66443f91eb5-7" value="&lt;p&gt;logstash&lt;/p&gt;" style="shape=rect;html=1;overflow=fill;whiteSpace=wrap;align=center;fontStyle=1" parent="1" vertex="1">
          <mxGeometry x="547" y="655" width="160" height="70" as="geometry" />
        </mxCell>
        <mxCell id="1672d66443f91eb5-17" style="edgeStyle=orthogonalEdgeStyle;rounded=0;html=1;endArrow=circlePlus;endFill=0;jettySize=auto;orthogonalLoop=1;entryX=0.5;entryY=1;" parent="1" source="1672d66443f91eb5-8" target="1672d66443f91eb5-5" edge="1">
          <mxGeometry relative="1" as="geometry">
            <Array as="points">
              <mxPoint x="817" y="635" />
              <mxPoint x="717" y="635" />
            </Array>
          </mxGeometry>
        </mxCell>
        <mxCell id="1672d66443f91eb5-8" value="&lt;p&gt;elasticsearch&lt;/p&gt;" style="shape=rect;html=1;overflow=fill;whiteSpace=wrap;align=center;fontStyle=1" parent="1" vertex="1">
          <mxGeometry x="737" y="655" width="160" height="70" as="geometry" />
        </mxCell>
        <mxCell id="1672d66443f91eb5-23" value="Title" style="text;strokeColor=none;fillColor=none;html=1;fontSize=24;fontStyle=1;verticalAlign=middle;align=center;" parent="1" vertex="1">
          <mxGeometry x="120" y="40" width="1510" height="40" as="geometry" />
        </mxCell>
      </root>
    </mxGraphModel>
  </diagram>
</mxfile>
